<svg height="512" viewBox="0 0 58 44" width="512" xmlns="http://www.w3.org/2000/svg"><g id="Page-1" fill="none" fill-rule="evenodd"><g id="046---Decline-Call" fill="rgb(0,0,0)" fill-rule="nonzero" transform="translate(-1)"><path id="Shape" d="m30 8c3.9848419-.11242462 7.9013352 1.05152161 11.178 3.322.5158401.377368.8211008.9778624.822 1.617v4.47c-.0001315.9313098.6425702 1.7394553 1.55 1.949l9.678 2.233c1.0045895.2318401 2.020805-.337968 2.347-1.316l3.325-8.975c.2664118-.7915873.0104448-1.66530946-.641-2.188-3.692-2.938-13.181-9.112-28.259-9.112s-24.567 6.174-28.256 9.114c-.65168746.52162096-.90880371 1.3943789-.644 2.186l3.322 8.973c.32619503.978032 1.34241054 1.5478401 2.347 1.316l9.678-2.233c.9078933-.2081796 1.5518784-1.0155453 1.553-1.947v-4.47c.0008992-.6391376.3061599-1.239632.822-1.617 3.2766648-2.27047839 7.1931581-3.43442462 11.178-3.322z"/><path id="Shape" d="m35 30v-9c0-1.1045695-.8954305-2-2-2h-6c-1.1045695 0-2 .8954305-2 2v9h-3.943c-.382831.0000682-.732025.2186946-.8993051.5630446-.1672801.3443501-.1232845.7539821.1133051 1.0549554l8.943 11.382c.1895978.2410506.4793198.3817735.786.3817735s.5964022-.1407229.786-.3817735l8.943-11.381c.2372025-.3009639.2815572-.7110121.1141984-1.0557372-.1673588-.344725-.5169958-.5634962-.9001984-.5632628z"/></g></g></svg>